<?xml version="1.0" encoding="utf-8"?>
<!-- Generator: Adobe Illustrator 19.1.0, SVG Export Plug-In . SVG Version: 6.00 Build 0)  -->
<svg version="1.1" id="Ebene_1" xmlns="http://www.w3.org/2000/svg" xmlns:xlink="http://www.w3.org/1999/xlink" x="0px" y="0px"
	 viewBox="0 0 103.5 28.9" style="enable-background:new 0 0 103.5 28.9;" xml:space="preserve">
<style type="text/css">
	.st0{fill:#2196F3;}
	.st1{fill:#B0B0B0;}
	.st2{fill:#454545;}
</style>
<g transform="translate(0, 0)">
	<path class="st0" d="M28.2,0.1H0.6C0.3,0.1,0,0.4,0,0.7v27.6c0,0.4,0.3,0.6,0.6,0.6h27.6c0.4,0,0.6-0.3,0.6-0.6V0.7
		C28.8,0.4,28.6,0.1,28.2,0.1z M23.6,11.2l-5,5c-0.3,0.3-0.6,0.3-0.8,0.1L12,11.6l-5.9,7c-0.1,0.2-0.3,0.3-0.5,0.3
		c-0.1,0-0.3-0.1-0.4-0.1c-0.3-0.3-0.3-0.6-0.1-0.9l6.3-7.5c0.2-0.3,0.6-0.3,0.9-0.1l5.8,4.6l4.6-4.6c0.3-0.3,0.6-0.3,0.9,0
		C23.9,10.6,23.9,11,23.6,11.2z"/>
</g>
<g>
	<path class="st1" d="M34.9,0.1h2.2c0.3,0,0.6,0,0.8,0.1c0.3,0.1,0.5,0.2,0.7,0.3c0.2,0.1,0.4,0.3,0.5,0.5c0.1,0.2,0.2,0.5,0.2,0.8
		c0,0.4-0.1,0.8-0.3,1c-0.2,0.3-0.5,0.5-0.9,0.5L39.5,6H38l-1.2-2.3h-0.6V6h-1.3V0.1z M36.2,2.6h0.8c0.1,0,0.2,0,0.4,0
		c0.1,0,0.2,0,0.3-0.1s0.2-0.1,0.3-0.2S38,2.1,38,1.9c0-0.1,0-0.3-0.1-0.4s-0.1-0.2-0.2-0.2c-0.1,0-0.2-0.1-0.3-0.1
		c-0.1,0-0.2,0-0.4,0h-0.8V2.6z"/>
	<path class="st1" d="M39.9,3.1c0-0.5,0.1-0.9,0.2-1.3c0.2-0.4,0.4-0.7,0.7-1c0.3-0.3,0.6-0.5,1-0.6C42.1,0.1,42.6,0,43,0
		c0.5,0,0.9,0.1,1.3,0.2c0.4,0.1,0.7,0.3,1,0.6c0.3,0.3,0.5,0.6,0.7,1c0.2,0.4,0.2,0.8,0.2,1.3c0,0.5-0.1,0.9-0.2,1.3
		c-0.2,0.4-0.4,0.7-0.7,1c-0.3,0.3-0.6,0.5-1,0.6C43.9,6,43.5,6.1,43,6.1c-0.5,0-0.9-0.1-1.3-0.2s-0.7-0.3-1-0.6
		c-0.3-0.3-0.5-0.6-0.7-1C40,3.9,39.9,3.5,39.9,3.1z M41.2,3.1c0,0.3,0,0.5,0.1,0.8c0.1,0.2,0.2,0.4,0.4,0.6
		c0.2,0.2,0.3,0.3,0.6,0.4c0.2,0.1,0.5,0.1,0.7,0.1s0.5,0,0.7-0.1c0.2-0.1,0.4-0.2,0.6-0.4c0.2-0.2,0.3-0.4,0.4-0.6
		c0.1-0.2,0.1-0.5,0.1-0.8c0-0.3,0-0.5-0.1-0.7s-0.2-0.4-0.4-0.6c-0.2-0.2-0.3-0.3-0.6-0.4c-0.2-0.1-0.5-0.1-0.7-0.1s-0.5,0-0.7,0.1
		c-0.2,0.1-0.4,0.2-0.6,0.4c-0.2,0.2-0.3,0.4-0.4,0.6C41.2,2.5,41.2,2.8,41.2,3.1z"/>
	<path class="st1" d="M50.8,1.7c-0.1-0.2-0.3-0.3-0.5-0.4c-0.2-0.1-0.4-0.1-0.6-0.1c-0.2,0-0.5,0-0.7,0.1c-0.2,0.1-0.4,0.2-0.5,0.4
		c-0.2,0.2-0.3,0.4-0.4,0.6C48.1,2.5,48,2.8,48,3.1c0,0.3,0,0.5,0.1,0.8c0.1,0.2,0.2,0.4,0.3,0.6c0.1,0.2,0.3,0.3,0.5,0.4
		c0.2,0.1,0.4,0.1,0.6,0.1c0.3,0,0.5-0.1,0.7-0.2c0.2-0.1,0.4-0.3,0.5-0.5l1.1,0.8c-0.2,0.3-0.6,0.6-0.9,0.8
		c-0.4,0.2-0.8,0.2-1.2,0.2c-0.5,0-0.9-0.1-1.3-0.2s-0.7-0.3-1-0.6c-0.3-0.3-0.5-0.6-0.7-1c-0.2-0.4-0.2-0.8-0.2-1.3
		c0-0.5,0.1-0.9,0.2-1.3c0.2-0.4,0.4-0.7,0.7-1c0.3-0.3,0.6-0.5,1-0.6C49,0.1,49.4,0,49.8,0c0.2,0,0.3,0,0.5,0
		c0.2,0,0.4,0.1,0.5,0.1s0.3,0.2,0.5,0.3c0.2,0.1,0.3,0.2,0.4,0.4L50.8,1.7z"/>
	<path class="st1" d="M52.7,0.1H54v2.4l2.3-2.4h1.7l-2.6,2.7L58.1,6h-1.8L54,3.2V6h-1.3V0.1z"/>
	<path class="st1" d="M58.6,0.1h3.9v1.2h-2.7v1.1h2.5v1.2h-2.5v1.2h2.8V6h-4.1V0.1z"/>
	<path class="st1" d="M64.8,1.3h-1.7V0.1h4.6v1.1h-1.7V6h-1.3V1.3z"/>
	<path class="st1" d="M70.9,0.1h1.3v4.6h2.4V6h-3.6V0.1z"/>
	<path class="st1" d="M75.3,0.1h3.9v1.2h-2.7v1.1h2.5v1.2h-2.5v1.2h2.8V6h-4.1V0.1z"/>
	<path class="st1" d="M82.3,0.1h1.1L85.9,6h-1.4L84,4.7h-2.3L81.2,6h-1.4L82.3,0.1z M82.8,1.8l-0.7,1.8h1.4L82.8,1.8z"/>
	<path class="st1" d="M91.8,5.5C91.4,5.7,91,5.9,90.6,6c-0.4,0.1-0.8,0.1-1.3,0.1c-0.5,0-0.9-0.1-1.3-0.2s-0.7-0.3-1-0.6
		c-0.3-0.3-0.5-0.6-0.7-1c-0.2-0.4-0.2-0.8-0.2-1.3c0-0.5,0.1-0.9,0.2-1.3c0.2-0.4,0.4-0.7,0.7-1c0.3-0.3,0.6-0.5,1-0.6
		C88.4,0.1,88.9,0,89.3,0c0.5,0,0.9,0.1,1.3,0.2c0.4,0.1,0.7,0.3,1,0.6l-0.9,1c-0.2-0.2-0.4-0.3-0.6-0.4c-0.2-0.1-0.5-0.1-0.8-0.1
		c-0.3,0-0.5,0-0.7,0.1c-0.2,0.1-0.4,0.2-0.6,0.4c-0.2,0.2-0.3,0.4-0.4,0.6c-0.1,0.2-0.1,0.5-0.1,0.7c0,0.3,0,0.5,0.1,0.8
		C87.7,4,87.8,4.2,88,4.4c0.2,0.2,0.3,0.3,0.6,0.4c0.2,0.1,0.5,0.1,0.7,0.1c0.3,0,0.5,0,0.7-0.1s0.4-0.1,0.5-0.2V3.7h-1V2.5h2.3V5.5
		z"/>
	<path class="st1" d="M97.8,3.7c0,0.3-0.1,0.7-0.2,1c-0.1,0.3-0.3,0.5-0.5,0.8c-0.2,0.2-0.5,0.4-0.8,0.5c-0.3,0.1-0.7,0.2-1.1,0.2
		c-0.4,0-0.8-0.1-1.1-0.2c-0.3-0.1-0.6-0.3-0.8-0.5C93.3,5.2,93.1,5,93,4.7c-0.1-0.3-0.2-0.6-0.2-1V0.1h1.3v3.5c0,0.2,0,0.3,0.1,0.5
		c0.1,0.2,0.1,0.3,0.2,0.4c0.1,0.1,0.2,0.2,0.4,0.3c0.1,0.1,0.3,0.1,0.5,0.1c0.2,0,0.3,0,0.5-0.1s0.3-0.2,0.4-0.3
		c0.1-0.1,0.2-0.2,0.2-0.4c0.1-0.2,0.1-0.3,0.1-0.5V0.1h1.3V3.7z"/>
	<path class="st1" d="M99,0.1h3.9v1.2h-2.7v1.1h2.5v1.2h-2.5v1.2h2.8V6H99V0.1z"/>
	<path class="st2" d="M43.8,14.6c-0.3-0.4-0.7-0.7-1.3-0.9c-0.5-0.2-1.1-0.3-1.5-0.3c-0.3,0-0.6,0-0.9,0.1c-0.3,0.1-0.6,0.2-0.9,0.3
		c-0.3,0.1-0.5,0.3-0.6,0.6c-0.2,0.2-0.2,0.5-0.2,0.9c0,0.5,0.2,0.9,0.6,1.2c0.4,0.3,0.9,0.5,1.5,0.7c0.6,0.2,1.3,0.4,2,0.6
		c0.7,0.2,1.4,0.5,2,0.8c0.6,0.4,1.1,0.9,1.5,1.5c0.4,0.6,0.6,1.4,0.6,2.5c0,1-0.2,1.8-0.5,2.6c-0.4,0.7-0.9,1.3-1.5,1.8
		c-0.6,0.5-1.3,0.8-2.2,1.1c-0.8,0.2-1.7,0.4-2.6,0.4c-1.1,0-2.2-0.2-3.2-0.5c-1-0.3-1.9-0.9-2.8-1.7l2.8-3.1
		c0.4,0.5,0.9,0.9,1.5,1.2c0.6,0.3,1.2,0.4,1.9,0.4c0.3,0,0.6,0,1-0.1c0.3-0.1,0.6-0.2,0.9-0.3c0.3-0.1,0.5-0.3,0.6-0.6
		s0.2-0.5,0.2-0.8c0-0.5-0.2-1-0.6-1.3c-0.4-0.3-0.9-0.6-1.5-0.8c-0.6-0.2-1.3-0.4-2-0.7c-0.7-0.2-1.4-0.5-2-0.9
		c-0.6-0.4-1.1-0.8-1.5-1.4c-0.4-0.6-0.6-1.4-0.6-2.4c0-1,0.2-1.8,0.6-2.5c0.4-0.7,0.9-1.3,1.5-1.8c0.6-0.5,1.3-0.8,2.2-1.1
		c0.8-0.2,1.7-0.4,2.5-0.4c1,0,2,0.1,2.9,0.4c0.9,0.3,1.8,0.8,2.5,1.4L43.8,14.6z"/>
	<path class="st2" d="M52.9,13.7h-5v-3.5h14v3.5h-5V28h-3.9V13.7z"/>
	<path class="st2" d="M67.3,10.3h3.2L78.2,28h-4.4l-1.5-3.8h-6.9L64,28h-4.3L67.3,10.3z M68.8,15.4l-2.2,5.5H71L68.8,15.4z"/>
	<path class="st2" d="M81.1,13.7h-5.1v-3.5h14v3.5h-5V28h-3.9V13.7z"/>
	<path class="st2" d="M100.8,14.6c-0.3-0.4-0.7-0.7-1.3-0.9c-0.5-0.2-1.1-0.3-1.5-0.3c-0.3,0-0.6,0-0.9,0.1
		c-0.3,0.1-0.6,0.2-0.8,0.3c-0.3,0.1-0.5,0.3-0.7,0.6c-0.2,0.2-0.2,0.5-0.2,0.9c0,0.5,0.2,0.9,0.6,1.2c0.4,0.3,0.9,0.5,1.5,0.7
		c0.6,0.2,1.3,0.4,2,0.6c0.7,0.2,1.4,0.5,2,0.8c0.6,0.4,1.1,0.9,1.5,1.5c0.4,0.6,0.6,1.4,0.6,2.5c0,1-0.2,1.8-0.5,2.6
		c-0.4,0.7-0.9,1.3-1.5,1.8c-0.6,0.5-1.3,0.8-2.2,1.1c-0.8,0.2-1.7,0.4-2.6,0.4c-1.2,0-2.2-0.2-3.2-0.5c-1-0.3-1.9-0.9-2.8-1.7
		l2.8-3.1c0.4,0.5,0.9,0.9,1.5,1.2c0.6,0.3,1.2,0.4,1.9,0.4c0.3,0,0.6,0,1-0.1c0.3-0.1,0.6-0.2,0.9-0.3c0.3-0.1,0.5-0.3,0.6-0.6
		s0.2-0.5,0.2-0.8c0-0.5-0.2-1-0.6-1.3c-0.4-0.3-0.9-0.6-1.5-0.8c-0.6-0.2-1.3-0.4-2-0.7c-0.7-0.2-1.4-0.5-2-0.9
		c-0.6-0.4-1.1-0.8-1.5-1.4s-0.6-1.4-0.6-2.4c0-1,0.2-1.8,0.6-2.5c0.4-0.7,0.9-1.3,1.5-1.8c0.6-0.5,1.3-0.8,2.2-1.1
		c0.8-0.2,1.7-0.4,2.5-0.4c1,0,2,0.1,2.9,0.4c0.9,0.3,1.8,0.8,2.5,1.4L100.8,14.6z"/>
</g>
<g>
</g>
<g>
</g>
<g>
</g>
<g>
</g>
<g>
</g>
<g>
</g>
</svg>
