<?xml version="1.0" encoding="utf-8"?>
<!-- Generator: Adobe Illustrator 19.1.0, SVG Export Plug-In . SVG Version: 6.00 Build 0)  -->
<svg version="1.1" id="Ebene_1" xmlns="http://www.w3.org/2000/svg" xmlns:xlink="http://www.w3.org/1999/xlink" x="0px" y="0px"
	 viewBox="0 0 189.4 46" style="enable-background:new 0 0 189.4 46;" xml:space="preserve">
<style type="text/css">
	.st0{fill:none;stroke:#2196F3;stroke-width:2;stroke-linecap:square;stroke-miterlimit:10;}
	.st1{fill:#2196F3;}
	.st2{fill:#B1B1B1;}
</style>
<g transform="translate(0, 48)">
	<polyline class="st0" points="1,-25 11,-25 17,-37 29,-13 35,-25 45,-25 	"/>
	<circle class="st0" cx="23" cy="-25" r="22"/>
</g>
<g>
	<path class="st1" d="M56.2,25.7h-2l-1.3-2.3h-0.4l-0.3,2.3h-1.8l0.9-6.7h3.6c0.8,0,1.4,0.7,1.3,1.4l-0.2,1.5
		c-0.1,0.6-0.6,1.2-1.1,1.4L56.2,25.7z M54.3,20.9c0-0.2-0.1-0.4-0.4-0.4h-1.1L52.6,22h1.1c0.3,0,0.4-0.2,0.5-0.4L54.3,20.9z"/>
	<path class="st1" d="M61.7,25.8h-3.1c-0.8,0-1.4-0.7-1.3-1.4l0.5-4.1c0.1-0.8,0.8-1.4,1.6-1.4h3.1c0.8,0,1.4,0.7,1.3,1.4l-0.5,4.1
		C63.2,25.1,62.5,25.8,61.7,25.8z M62,20.7c0-0.1,0-0.2-0.2-0.2h-2.1c-0.1,0-0.2,0.1-0.2,0.2L59.1,24c0,0.1,0.1,0.2,0.2,0.2h2.1
		c0.1,0,0.2-0.1,0.2-0.2L62,20.7z"/>
	<path class="st1" d="M70.5,23.5l-0.1,0.9c-0.1,0.8-0.8,1.4-1.6,1.4H66c-0.8,0-1.4-0.7-1.3-1.4l0.5-4.1c0.1-0.8,0.8-1.4,1.6-1.4h2.7
		c0.8,0,1.4,0.7,1.3,1.4l-0.1,0.9h-1.7l0.1-0.5c0-0.1,0-0.2-0.2-0.2h-1.7c-0.1,0-0.2,0.1-0.2,0.2L66.5,24c0,0.1,0.1,0.2,0.2,0.2h1.7
		c0.1,0,0.2-0.1,0.2-0.2l0.1-0.5H70.5z"/>
	<path class="st1" d="M72.5,19h1.8l-0.4,2.7l2.7-2.7h2.1l-3.3,3.3l2.5,3.4h-2.2l-1.9-2.6l-0.3,2.6h-1.8L72.5,19z"/>
	<path class="st1" d="M78.8,25.7l0.9-6.7h4.9l-0.2,1.5h-3.2l-0.1,1.1h2.4L83.3,23h-2.4L80.8,24H84l-0.2,1.6H78.8z"/>
	<path class="st1" d="M89,20.5l-0.7,5.2h-1.8l0.7-5.2h-2.2l0.2-1.5h6.1l-0.2,1.5H89z"/>
	<path class="st1" d="M91.4,25.7l0.9-6.7h1.8L93.4,24h3.2l-0.2,1.6H91.4z"/>
	<path class="st1" d="M97.4,25.7l0.9-6.7h4.9l-0.2,1.5h-3.2l-0.1,1.1h2.4l-0.2,1.4h-2.4L99.4,24h3.2l-0.2,1.6H97.4z"/>
	<path class="st1" d="M107.6,24.2h-2l-0.7,1.5H103l3.4-6.7h1.7l1.7,6.7h-1.9L107.6,24.2z M106.2,22.8h1.1l-0.3-1.6L106.2,22.8z"/>
	<path class="st1" d="M114,22.1h2.7l-0.3,2.2c-0.1,0.8-0.8,1.4-1.6,1.4H112c-0.8,0-1.4-0.7-1.3-1.4l0.5-4.1c0.1-0.8,0.8-1.4,1.6-1.4
		h2.7c0.8,0,1.4,0.7,1.3,1.4l-0.1,0.9h-1.7l0.1-0.5c0-0.1,0-0.2-0.2-0.2h-1.7c-0.1,0-0.2,0.1-0.2,0.2l-0.4,3.3
		c0,0.1,0.1,0.2,0.2,0.2h1.7c0.1,0,0.2-0.1,0.2-0.2l0.1-0.5h-1L114,22.1z"/>
	<path class="st1" d="M124.3,19l-0.7,5.4c-0.1,0.8-0.8,1.4-1.6,1.4h-2.8c-0.8,0-1.3-0.7-1.2-1.4l0.7-5.4h1.8l-0.7,5
		c0,0.1,0.1,0.2,0.2,0.2h1.7c0.1,0,0.2-0.1,0.2-0.2l0.7-5H124.3z"/>
	<path class="st1" d="M125,25.7l0.9-6.7h4.9l-0.2,1.5h-3.2l-0.1,1.1h2.4l-0.2,1.4h-2.4l-0.1,1.1h3.2l-0.2,1.6H125z"/>
	<path class="st1" d="M136.2,22.1c0.5,0.1,0.7,0.6,0.7,1.1l-0.2,1.2c-0.1,0.8-0.8,1.4-1.6,1.4h-2.6c-0.8,0-1.4-0.7-1.3-1.4l0.1-0.8
		h1.7L133,24c0,0.1,0.1,0.2,0.2,0.2h1.6c0.1,0,0.2-0.1,0.2-0.2l0.1-0.6c0-0.1,0-0.1-0.1-0.2l-2.7-0.7c-0.5-0.1-0.7-0.6-0.7-1.1
		l0.2-1.2c0.1-0.8,0.8-1.4,1.6-1.4h2.6c0.8,0,1.4,0.7,1.3,1.4l-0.1,0.8h-1.7l0.1-0.4c0-0.1-0.1-0.2-0.2-0.2h-1.6
		c-0.1,0-0.2,0.1-0.2,0.2l-0.1,0.6c0,0.1,0,0.1,0.1,0.2L136.2,22.1z"/>
	<path class="st1" d="M141.9,20.5l-0.7,5.2h-1.8l0.7-5.2H138l0.2-1.5h6.1l-0.2,1.5H141.9z"/>
	<path class="st1" d="M147.5,24.2h-2l-0.7,1.5h-1.9l3.4-6.7h1.7l1.7,6.7h-1.9L147.5,24.2z M146.2,22.8h1.1l-0.3-1.6L146.2,22.8z"/>
	<path class="st1" d="M153.9,20.5l-0.7,5.2h-1.8l0.7-5.2h-2.2l0.2-1.5h6.1l-0.2,1.5H153.9z"/>
	<path class="st1" d="M161.2,22.1c0.5,0.1,0.7,0.6,0.7,1.1l-0.2,1.2c-0.1,0.8-0.8,1.4-1.6,1.4h-2.6c-0.8,0-1.4-0.7-1.3-1.4l0.1-0.8
		h1.7L158,24c0,0.1,0.1,0.2,0.2,0.2h1.6c0.1,0,0.2-0.1,0.2-0.2l0.1-0.6c0-0.1,0-0.1-0.1-0.2l-2.7-0.7c-0.5-0.1-0.7-0.6-0.7-1.1
		l0.2-1.2c0.1-0.8,0.8-1.4,1.6-1.4h2.6c0.8,0,1.4,0.7,1.3,1.4l-0.1,0.8h-1.7l0.1-0.4c0-0.1-0.1-0.2-0.2-0.2h-1.6
		c-0.1,0-0.2,0.1-0.2,0.2l-0.1,0.6c0,0.1,0,0.1,0.1,0.2L161.2,22.1z"/>
	<path class="st2" d="M164.9,25.7h-1.8l0.2-1.8h1.8L164.9,25.7z"/>
	<path class="st2" d="M172.5,23.5l-0.1,0.9c-0.1,0.8-0.8,1.4-1.6,1.4H168c-0.8,0-1.4-0.7-1.3-1.4l0.5-4.1c0.1-0.8,0.8-1.4,1.6-1.4
		h2.7c0.8,0,1.4,0.7,1.3,1.4l-0.1,0.9h-1.7l0.1-0.5c0-0.1,0-0.2-0.2-0.2h-1.7c-0.1,0-0.2,0.1-0.2,0.2l-0.4,3.3
		c0,0.1,0.1,0.2,0.2,0.2h1.7c0.1,0,0.2-0.1,0.2-0.2l0.1-0.5H172.5z"/>
	<path class="st2" d="M178.1,25.8H175c-0.8,0-1.4-0.7-1.3-1.4l0.5-4.1c0.1-0.8,0.8-1.4,1.6-1.4h3.1c0.8,0,1.4,0.7,1.3,1.4l-0.5,4.1
		C179.6,25.1,178.9,25.8,178.1,25.8z M178.5,20.7c0-0.1,0-0.2-0.2-0.2h-2.1c-0.1,0-0.2,0.1-0.2,0.2l-0.4,3.3c0,0.1,0.1,0.2,0.2,0.2
		h2.1c0.1,0,0.2-0.1,0.2-0.2L178.5,20.7z"/>
	<path class="st2" d="M184.3,25.7l-1.1-2.7l-0.4,2.7h-1.7L182,19h1.3l1.7,4l2.8-4h1.3l-0.9,6.7h-1.7l0.4-2.7l-1.8,2.7H184.3z"/>
</g>
<g>
</g>




<g>
</g>
<g>
</g>
<g>
</g>
<g>
</g>
<g>
</g>
</svg>
