<?xml version="1.0" encoding="utf-8"?>
<!-- Generator: Adobe Illustrator 19.1.0, SVG Export Plug-In . SVG Version: 6.00 Build 0)  -->
<svg version="1.1" id="Ebene_1" xmlns="http://www.w3.org/2000/svg" xmlns:xlink="http://www.w3.org/1999/xlink" x="0px" y="0px"
	 viewBox="0 0 189 46" style="enable-background:new 0 0 189 46;" xml:space="preserve">
<style type="text/css">
	.st0{fill:#444444;}
	.st1{fill:#B1B1B1;}
</style>
<g transform="translate(0, 48)">
	<path class="st0" d="M35.6-24l-5.7,11.4C29.7-12.2,29.4-12,29-12s-0.7-0.2-0.9-0.6L17-34.8l-5.1,10.2C11.7-24.2,11.4-24,11-24H0
		C0.5-11.8,10.6-2,23-2s22.4-9.8,23-22H35.6z"/>
	<path class="st0" d="M10.4-26l5.7-11.4c0.3-0.7,1.4-0.7,1.8,0L29-15.2l5.1-10.2c0.2-0.3,0.5-0.6,0.9-0.6h11
		c-0.6-12.2-10.7-22-23-22S0.6-38.2,0-26H10.4z"/>
</g><g></g>
<g>
	<path class="st0" d="M55.8,26.3h-2L52.5,24h-0.4l-0.3,2.3H50l0.9-6.7h3.6c0.8,0,1.4,0.7,1.3,1.4l-0.2,1.5c-0.1,0.6-0.6,1.2-1.1,1.4
		L55.8,26.3z M54,21.5c0-0.2-0.1-0.4-0.4-0.4h-1.1l-0.2,1.5h1.1c0.3,0,0.4-0.2,0.5-0.4L54,21.5z"/>
	<path class="st0" d="M61.4,26.5h-3.1c-0.8,0-1.4-0.7-1.3-1.4l0.5-4.1c0.1-0.8,0.8-1.4,1.6-1.4h3.1c0.8,0,1.4,0.7,1.3,1.4L63,25
		C62.9,25.8,62.2,26.5,61.4,26.5z M61.7,21.3c0-0.1,0-0.2-0.2-0.2h-2.1c-0.1,0-0.2,0.1-0.2,0.2l-0.4,3.3c0,0.1,0.1,0.2,0.2,0.2h2.1
		c0.1,0,0.2-0.1,0.2-0.2L61.7,21.3z"/>
	<path class="st0" d="M70.1,24.1L70,25c-0.1,0.8-0.8,1.4-1.6,1.4h-2.7c-0.8,0-1.4-0.7-1.3-1.4l0.5-4.1c0.1-0.8,0.8-1.4,1.6-1.4h2.7
		c0.8,0,1.4,0.7,1.3,1.4l-0.1,0.9h-1.7l0.1-0.5c0-0.1,0-0.2-0.2-0.2h-1.7c-0.1,0-0.2,0.1-0.2,0.2l-0.4,3.3c0,0.1,0.1,0.2,0.2,0.2
		h1.7c0.1,0,0.2-0.1,0.2-0.2l0.1-0.5H70.1z"/>
	<path class="st0" d="M72.2,19.6H74l-0.4,2.7l2.7-2.7h2.1L75,23l2.5,3.4h-2.2l-1.9-2.6l-0.3,2.6h-1.8L72.2,19.6z"/>
	<path class="st0" d="M78.5,26.3l0.9-6.7h4.9l-0.2,1.5h-3.2l-0.1,1.1h2.4L83,23.6h-2.4l-0.1,1.1h3.2l-0.2,1.6H78.5z"/>
	<path class="st0" d="M88.7,21.2L88,26.3h-1.8l0.7-5.2h-2.2l0.2-1.5H91l-0.2,1.5H88.7z"/>
	<path class="st0" d="M91.1,26.3l0.9-6.7h1.8l-0.7,5.1h3.2l-0.2,1.6H91.1z"/>
	<path class="st0" d="M97,26.3l0.9-6.7h4.9l-0.2,1.5h-3.2l-0.1,1.1h2.4l-0.2,1.4h-2.4L99,24.7h3.2l-0.2,1.6H97z"/>
	<path class="st0" d="M107.2,24.9h-2l-0.7,1.5h-1.9l3.4-6.7h1.7l1.7,6.7h-1.9L107.2,24.9z M105.9,23.4h1.1l-0.3-1.6L105.9,23.4z"/>
	<path class="st0" d="M113.7,22.8h2.7l-0.3,2.2c-0.1,0.8-0.8,1.4-1.6,1.4h-2.7c-0.8,0-1.4-0.7-1.3-1.4l0.5-4.1
		c0.1-0.8,0.8-1.4,1.6-1.4h2.7c0.8,0,1.4,0.7,1.3,1.4l-0.1,0.9h-1.7l0.1-0.5c0-0.1,0-0.2-0.2-0.2h-1.7c-0.1,0-0.2,0.1-0.2,0.2
		l-0.4,3.3c0,0.1,0.1,0.2,0.2,0.2h1.7c0.1,0,0.2-0.1,0.2-0.2l0.1-0.5h-1L113.7,22.8z"/>
	<path class="st0" d="M123.9,19.6l-0.7,5.4c-0.1,0.8-0.8,1.4-1.6,1.4h-2.8c-0.8,0-1.3-0.7-1.2-1.4l0.7-5.4h1.8l-0.7,5
		c0,0.1,0.1,0.2,0.2,0.2h1.7c0.1,0,0.2-0.1,0.2-0.2l0.7-5H123.9z"/>
	<path class="st0" d="M124.6,26.3l0.9-6.7h4.9l-0.2,1.5h-3.2l-0.1,1.1h2.4l-0.2,1.4h-2.4l-0.1,1.1h3.2l-0.2,1.6H124.6z"/>
	<path class="st0" d="M135.9,22.7c0.5,0.1,0.7,0.6,0.7,1.1l-0.2,1.2c-0.1,0.8-0.8,1.4-1.6,1.4h-2.6c-0.8,0-1.4-0.7-1.3-1.4l0.1-0.8
		h1.7l-0.1,0.4c0,0.1,0.1,0.2,0.2,0.2h1.6c0.1,0,0.2-0.1,0.2-0.2l0.1-0.6c0-0.1,0-0.1-0.1-0.2l-2.7-0.7c-0.5-0.1-0.7-0.6-0.7-1.1
		l0.2-1.2c0.1-0.8,0.8-1.4,1.6-1.4h2.6c0.8,0,1.4,0.7,1.3,1.4l-0.1,0.8h-1.7l0.1-0.4c0-0.1-0.1-0.2-0.2-0.2h-1.6
		c-0.1,0-0.2,0.1-0.2,0.2l-0.1,0.6c0,0.1,0,0.1,0.1,0.2L135.9,22.7z"/>
	<path class="st0" d="M141.6,21.2l-0.7,5.2h-1.8l0.7-5.2h-2.2l0.2-1.5h6.1l-0.2,1.5H141.6z"/>
	<path class="st0" d="M147.2,24.9h-2l-0.7,1.5h-1.9l3.4-6.7h1.7l1.7,6.7h-1.9L147.2,24.9z M145.8,23.4h1.1l-0.3-1.6L145.8,23.4z"/>
	<path class="st0" d="M153.5,21.2l-0.7,5.2h-1.8l0.7-5.2h-2.2l0.2-1.5h6.1l-0.2,1.5H153.5z"/>
	<path class="st0" d="M160.9,22.7c0.5,0.1,0.7,0.6,0.7,1.1l-0.2,1.2c-0.1,0.8-0.8,1.4-1.6,1.4h-2.6c-0.8,0-1.4-0.7-1.3-1.4l0.1-0.8
		h1.7l-0.1,0.4c0,0.1,0.1,0.2,0.2,0.2h1.6c0.1,0,0.2-0.1,0.2-0.2l0.1-0.6c0-0.1,0-0.1-0.1-0.2l-2.7-0.7c-0.5-0.1-0.7-0.6-0.7-1.1
		l0.2-1.2c0.1-0.8,0.8-1.4,1.6-1.4h2.6c0.8,0,1.4,0.7,1.3,1.4l-0.1,0.8h-1.7l0.1-0.4c0-0.1-0.1-0.2-0.2-0.2h-1.6
		c-0.1,0-0.2,0.1-0.2,0.2l-0.1,0.6c0,0.1,0,0.1,0.1,0.2L160.9,22.7z"/>
	<path class="st1" d="M164.6,26.3h-1.8l0.2-1.8h1.8L164.6,26.3z"/>
	<path class="st1" d="M172.2,24.1L172,25c-0.1,0.8-0.8,1.4-1.6,1.4h-2.7c-0.8,0-1.4-0.7-1.3-1.4l0.5-4.1c0.1-0.8,0.8-1.4,1.6-1.4
		h2.7c0.8,0,1.4,0.7,1.3,1.4l-0.1,0.9h-1.7l0.1-0.5c0-0.1,0-0.2-0.2-0.2h-1.7c-0.1,0-0.2,0.1-0.2,0.2l-0.4,3.3
		c0,0.1,0.1,0.2,0.2,0.2h1.7c0.1,0,0.2-0.1,0.2-0.2l0.1-0.5H172.2z"/>
	<path class="st1" d="M177.8,26.5h-3.1c-0.8,0-1.4-0.7-1.3-1.4l0.5-4.1c0.1-0.8,0.8-1.4,1.6-1.4h3.1c0.8,0,1.4,0.7,1.3,1.4l-0.5,4.1
		C179.3,25.8,178.6,26.5,177.8,26.5z M178.1,21.3c0-0.1,0-0.2-0.2-0.2h-2.1c-0.1,0-0.2,0.1-0.2,0.2l-0.4,3.3c0,0.1,0.1,0.2,0.2,0.2
		h2.1c0.1,0,0.2-0.1,0.2-0.2L178.1,21.3z"/>
	<path class="st1" d="M183.9,26.3l-1.1-2.7l-0.4,2.7h-1.7l0.9-6.7h1.3l1.7,4l2.8-4h1.3l-0.9,6.7h-1.7l0.4-2.7l-1.8,2.7H183.9z"/>
</g>
<g>
</g>
<g>
</g>
<g>
</g>
<g>
</g>
<g>
</g>
<g>
</g>
</svg>
